<svg width="327" height="71" viewBox="0 0 327 71" fill="none" xmlns="http://www.w3.org/2000/svg">
<g filter="url(#filter0_d_56_540)">
<path d="M183.839 50.9373C182.765 50.9373 181.875 50.5833 181.168 49.8754C180.46 49.1544 180.119 48.2759 180.119 47.214C180.119 46.1521 180.46 45.2606 181.168 44.5526C181.875 43.8447 182.765 43.4907 183.839 43.4907C184.481 43.4907 185.084 43.635 185.634 43.9495C186.184 44.2511 186.616 44.6575 186.93 45.1819L185.346 46.0865C185.214 45.8374 185.005 45.6408 184.743 45.4966C184.468 45.3393 184.167 45.2737 183.839 45.2737C183.263 45.2737 182.805 45.4441 182.451 45.8112C182.11 46.1652 181.927 46.6372 181.927 47.214C181.927 47.7908 182.11 48.2628 182.451 48.6168C182.805 48.9708 183.263 49.1544 183.839 49.1544C184.167 49.1544 184.468 49.0757 184.743 48.9314C185.005 48.7872 185.214 48.5774 185.346 48.3284L186.93 49.2461C186.616 49.7705 186.184 50.177 185.634 50.4785C185.084 50.78 184.494 50.9373 183.839 50.9373ZM207.191 49.8623C206.471 50.5703 205.581 50.9373 204.532 50.9373C203.485 50.9373 202.607 50.5703 201.887 49.8623C201.153 49.1412 200.8 48.2628 200.8 47.214C200.8 46.1652 201.153 45.2868 201.887 44.5658C202.607 43.8447 203.485 43.4907 204.532 43.4907C205.581 43.4907 206.471 43.8447 207.191 44.5658C207.911 45.2868 208.278 46.1652 208.278 47.214C208.278 48.2628 207.911 49.1412 207.191 49.8623ZM203.157 48.6037C203.524 48.9708 203.982 49.1544 204.532 49.1544C205.082 49.1544 205.541 48.9708 205.908 48.6037C206.274 48.2366 206.458 47.7778 206.458 47.214C206.458 46.6503 206.274 46.1783 205.908 45.8244C205.541 45.4572 205.082 45.2737 204.532 45.2737C203.982 45.2737 203.524 45.4572 203.157 45.8244C202.791 46.1783 202.607 46.6503 202.607 47.214C202.607 47.7778 202.791 48.2366 203.157 48.6037ZM230.059 43.635V50.78H228.251V46.9387L226.509 49.7967H226.326L224.61 46.9518V50.78H222.777V43.635H224.61L226.418 46.6897L228.251 43.635H230.059ZM247.622 43.635C248.343 43.635 248.945 43.871 249.443 44.3428C249.927 44.8148 250.176 45.4179 250.176 46.139C250.176 46.8732 249.927 47.4631 249.443 47.9351C248.945 48.4071 248.343 48.6431 247.622 48.6431H246.679V50.78H244.845V43.635H247.622ZM247.622 46.8994C247.832 46.8994 248.002 46.8338 248.132 46.6897C248.277 46.5454 248.343 46.3619 248.343 46.139C248.343 45.9161 248.277 45.7326 248.132 45.5884C248.002 45.4572 247.832 45.3786 247.622 45.3786H246.679V46.8994H247.622ZM268.329 50.78L267.975 49.7574H265.553L265.251 50.78H263.274L265.539 43.635H267.845L270.202 50.78H268.329ZM266.024 48.1841H267.464L266.73 45.7457L266.024 48.1841ZM288.315 43.635H290.122V50.78H288.721L286.206 47.1878V50.78H284.386V43.635H285.801L288.315 47.2271V43.635ZM310.999 43.635L308.59 48.04V50.78H306.769V48.0531L304.359 43.635H306.403L307.673 46.2832L308.942 43.635H310.999Z" fill="#333333"/>
<path fill-rule="evenodd" clip-rule="evenodd" d="M264.692 12L285.145 34.3529H277.39L256.938 12H264.692Z" fill="#333333"/>
<path fill-rule="evenodd" clip-rule="evenodd" d="M274.447 22.5884L285.143 34.3531H277.033L266.338 22.5884H274.447Z" fill="#333333"/>
<path fill-rule="evenodd" clip-rule="evenodd" d="M242.36 12L262.813 34.3529H255.058L234.605 12H242.36Z" fill="#333333"/>
<path fill-rule="evenodd" clip-rule="evenodd" d="M252.117 22.5884L262.813 34.3531H254.703L244.008 22.5884H252.117Z" fill="#333333"/>
<path fill-rule="evenodd" clip-rule="evenodd" d="M220.03 12L240.483 34.3529H232.728L212.275 12H220.03Z" fill="#333333"/>
<path fill-rule="evenodd" clip-rule="evenodd" d="M229.787 22.5879L240.483 34.3526H232.373L221.678 22.5879H229.787Z" fill="#333333"/>
<path fill-rule="evenodd" clip-rule="evenodd" d="M298.819 26.6179L305.551 34.1693H299.54L292.795 26.6179L287.936 21.2558H303.037C304.11 21.2558 305.001 20.3774 305.001 19.3024C305.001 18.2405 304.11 17.349 303.037 17.349H284.871L279.515 12H303.037C307.058 12 310.345 15.2907 310.345 19.3024C310.345 23.3272 307.058 26.6179 303.037 26.6179H298.819ZM16 12.0787H31.1534H36.497H51.6505V17.4276H36.497V34.1693H31.1534V17.4276H16V12.0787ZM78.8532 12.0787H96.1676C101.917 12.0787 106.619 16.7852 106.619 22.5275V23.7074C106.619 29.4628 101.917 34.1693 96.1676 34.1693H78.8532C73.1035 34.1693 68.4016 29.4628 68.4016 23.7074V22.5275C68.4016 16.7852 73.1035 12.0787 78.8532 12.0787ZM78.8532 17.4276H96.1676C98.9705 17.4276 101.262 19.7219 101.262 22.5275V23.7074C101.262 26.5129 98.9705 28.8073 96.1676 28.8073H78.8532C76.0504 28.8073 73.7584 26.5129 73.7584 23.7074V22.5275C73.7584 19.7219 76.0504 17.4276 78.8532 17.4276ZM132.028 12.0787V23.9434L132.132 23.8254L150.481 12.0787H160.055L145.308 21.2951L163.579 34.1693H153.9L140.122 24.5333L132.028 29.5939V34.1693H126.671V29.5939V12.0787H132.028ZM197.709 12.118L217.88 34.1693H192.812L198.155 28.8073H205.725L197.762 20.089L184.914 34.1693H177.998L197.709 12.118Z" fill="#333333"/>
</g>
<defs>
<filter id="filter0_d_56_540" x="0" y="0" width="327" height="72" filterUnits="userSpaceOnUse" color-interpolation-filters="sRGB">
<feFlood flood-opacity="0" result="BackgroundImageFix"/>
<feColorMatrix in="SourceAlpha" type="matrix" values="0 0 0 0 0 0 0 0 0 0 0 0 0 0 0 0 0 0 127 0" result="hardAlpha"/>
<feOffset dy="4"/>
<feGaussianBlur stdDeviation="8"/>
<feComposite in2="hardAlpha" operator="out"/>
<feColorMatrix type="matrix" values="0 0 0 0 0 0 0 0 0 0 0 0 0 0 0 0 0 0 0.55 0"/>
<feBlend mode="normal" in2="BackgroundImageFix" result="effect1_dropShadow_56_540"/>
<feBlend mode="normal" in="SourceGraphic" in2="effect1_dropShadow_56_540" result="shape"/>
</filter>
</defs>
</svg>
