<svg width="295" height="40" viewBox="0 0 295 40" fill="none" xmlns="http://www.w3.org/2000/svg">
<path d="M167.839 38.9373C166.765 38.9373 165.875 38.5833 165.168 37.8754C164.46 37.1544 164.119 36.2759 164.119 35.214C164.119 34.1521 164.46 33.2606 165.168 32.5526C165.875 31.8447 166.765 31.4907 167.839 31.4907C168.481 31.4907 169.084 31.635 169.634 31.9495C170.184 32.2511 170.616 32.6575 170.93 33.1819L169.346 34.0865C169.214 33.8374 169.005 33.6408 168.743 33.4966C168.468 33.3393 168.167 33.2737 167.839 33.2737C167.263 33.2737 166.805 33.4441 166.451 33.8112C166.11 34.1652 165.927 34.6372 165.927 35.214C165.927 35.7908 166.11 36.2628 166.451 36.6168C166.805 36.9708 167.263 37.1544 167.839 37.1544C168.167 37.1544 168.468 37.0757 168.743 36.9314C169.005 36.7872 169.214 36.5774 169.346 36.3284L170.93 37.2461C170.616 37.7705 170.184 38.177 169.634 38.4785C169.084 38.78 168.494 38.9373 167.839 38.9373ZM191.191 37.8623C190.471 38.5703 189.581 38.9373 188.532 38.9373C187.485 38.9373 186.607 38.5703 185.887 37.8623C185.153 37.1412 184.8 36.2628 184.8 35.214C184.8 34.1652 185.153 33.2868 185.887 32.5658C186.607 31.8447 187.485 31.4907 188.532 31.4907C189.581 31.4907 190.471 31.8447 191.191 32.5658C191.911 33.2868 192.278 34.1652 192.278 35.214C192.278 36.2628 191.911 37.1412 191.191 37.8623ZM187.157 36.6037C187.524 36.9708 187.982 37.1544 188.532 37.1544C189.082 37.1544 189.541 36.9708 189.908 36.6037C190.274 36.2366 190.458 35.7778 190.458 35.214C190.458 34.6503 190.274 34.1783 189.908 33.8244C189.541 33.4572 189.082 33.2737 188.532 33.2737C187.982 33.2737 187.524 33.4572 187.157 33.8244C186.791 34.1783 186.607 34.6503 186.607 35.214C186.607 35.7778 186.791 36.2366 187.157 36.6037ZM214.059 31.635V38.78H212.251V34.9387L210.509 37.7967H210.326L208.61 34.9518V38.78H206.777V31.635H208.61L210.418 34.6897L212.251 31.635H214.059ZM231.622 31.635C232.343 31.635 232.945 31.871 233.443 32.3428C233.927 32.8148 234.176 33.4179 234.176 34.139C234.176 34.8732 233.927 35.4631 233.443 35.9351C232.945 36.4071 232.343 36.6431 231.622 36.6431H230.679V38.78H228.845V31.635H231.622ZM231.622 34.8994C231.832 34.8994 232.002 34.8338 232.132 34.6897C232.277 34.5454 232.343 34.3619 232.343 34.139C232.343 33.9161 232.277 33.7326 232.132 33.5884C232.002 33.4572 231.832 33.3786 231.622 33.3786H230.679V34.8994H231.622ZM252.329 38.78L251.975 37.7574H249.553L249.251 38.78H247.274L249.539 31.635H251.845L254.202 38.78H252.329ZM250.024 36.1841H251.464L250.73 33.7457L250.024 36.1841ZM272.315 31.635H274.122V38.78H272.721L270.206 35.1878V38.78H268.386V31.635H269.801L272.315 35.2271V31.635ZM294.999 31.635L292.59 36.04V38.78H290.769V36.0531L288.359 31.635H290.403L291.673 34.2832L292.942 31.635H294.999Z" fill="#333333"/>
<path fill-rule="evenodd" clip-rule="evenodd" d="M248.692 0L269.145 22.3529H261.39L240.938 0H248.692Z" fill="#333333"/>
<path fill-rule="evenodd" clip-rule="evenodd" d="M226.36 0L246.813 22.3529H239.058L218.605 0H226.36Z" fill="#333333"/>
<path fill-rule="evenodd" clip-rule="evenodd" d="M204.03 0L224.483 22.3529H216.728L196.275 0H204.03Z" fill="#333333"/>
<path fill-rule="evenodd" clip-rule="evenodd" d="M282.819 14.6179L289.551 22.1693H283.54L276.795 14.6179L271.936 9.2558H287.037C288.11 9.2558 289.001 8.37741 289.001 7.30238C289.001 6.24046 288.11 5.34896 287.037 5.34896H268.871L263.515 0H287.037C291.058 0 294.345 3.29066 294.345 7.30238C294.345 11.3272 291.058 14.6179 287.037 14.6179H282.819ZM0 0.0786612H15.1534H20.497H35.6505V5.42762H20.497V22.1693H15.1534V5.42762H0V0.0786612ZM62.8532 0.0786612H80.1676C85.9173 0.0786612 90.6192 4.78522 90.6192 10.5275V11.7074C90.6192 17.4628 85.9173 22.1693 80.1676 22.1693H62.8532C57.1035 22.1693 52.4016 17.4628 52.4016 11.7074V10.5275C52.4016 4.78522 57.1035 0.0786612 62.8532 0.0786612ZM62.8532 5.42762H80.1676C82.9705 5.42762 85.2624 7.72191 85.2624 10.5275V11.7074C85.2624 14.5129 82.9705 16.8073 80.1676 16.8073H62.8532C60.0504 16.8073 57.7584 14.5129 57.7584 11.7074V10.5275C57.7584 7.72191 60.0504 5.42762 62.8532 5.42762ZM116.028 0.0786612V11.9434L116.132 11.8254L134.481 0.0786612H144.055L129.308 9.29513L147.579 22.1693H137.9L124.122 12.5333L116.028 17.5939V22.1693H110.671V17.5939V0.0786612H116.028ZM181.709 0.117992L201.88 22.1693H176.812L182.155 16.8073H189.725L181.762 8.08899L168.914 22.1693H161.998L181.709 0.117992Z" fill="#333333"/>
</svg>
