<svg width="16" height="16" viewBox="0 0 16 16" fill="none" xmlns="http://www.w3.org/2000/svg">
<path d="M15.1139 4.57699L11.4234 0.886493C11.2279 0.690993 10.9119 0.690993 10.7164 0.886493L0.886859 10.716C0.691359 10.9115 0.691359 11.2275 0.886859 11.423L4.57636 15.1135C4.67036 15.2075 4.79686 15.26 4.92986 15.26C5.06286 15.26 5.18986 15.2075 5.28336 15.1135L15.1134 5.28449C15.2074 5.19049 15.2599 5.06349 15.2599 4.93099C15.2599 4.79849 15.2074 4.67099 15.1139 4.57699ZM13.2164 5.76749L11.7244 4.27749C11.5289 4.08249 11.2124 4.08199 11.0169 4.27799C10.8219 4.47349 10.8219 4.78999 11.0174 4.98499L12.5094 6.47499L11.5659 7.41849L10.6909 6.54299C10.4954 6.34699 10.1794 6.34749 9.98386 6.54249C9.78836 6.73749 9.78836 7.05399 9.98386 7.24949L10.8589 8.12549L9.91586 9.06849L8.42436 7.57699C8.22886 7.38149 7.91286 7.38149 7.71736 7.57699C7.52186 7.77249 7.52186 8.08849 7.71736 8.28399L9.20836 9.77549L8.26586 10.718L7.38886 9.84249C7.19336 9.64749 6.87736 9.64699 6.68186 9.84299C6.48636 10.0385 6.48636 10.355 6.68186 10.55L7.55836 11.4255L6.61486 12.3685L5.12436 10.878C4.92886 10.6825 4.61286 10.6825 4.41736 10.878C4.22186 11.0735 4.22186 11.3895 4.41736 11.585L5.90786 13.0755L4.92986 14.0535L1.94736 11.07L11.0699 1.94749L14.0534 4.93099L13.2164 5.76749Z" fill="#333333"/>
</svg>
