<svg width="16" height="20" viewBox="0 0 16 20" fill="none" xmlns="http://www.w3.org/2000/svg">
<path d="M4.26653 12.6802C4.08253 12.6802 3.95853 12.6982 3.89453 12.7162V13.8942C3.97053 13.9122 4.06553 13.9172 4.19653 13.9172C4.67553 13.9172 4.97053 13.6752 4.97053 13.2662C4.97053 12.9002 4.71653 12.6802 4.26653 12.6802ZM7.75351 12.6922C7.55351 12.6922 7.42351 12.7102 7.34651 12.7282V15.3382C7.42351 15.3562 7.54751 15.3562 7.65951 15.3562C8.47651 15.3622 9.00851 14.9122 9.00851 13.9602C9.01451 13.1302 8.52951 12.6922 7.75351 12.6922Z" fill="white"/>
<path d="M10 0H2C1.46957 0 0.96086 0.21071 0.58579 0.58579C0.21071 0.96086 0 1.46957 0 2V18C0 18.5304 0.21071 19.0391 0.58579 19.4142C0.96086 19.7893 1.46957 20 2 20H14C14.5304 20 15.0391 19.7893 15.4142 19.4142C15.7893 19.0391 16 18.5304 16 18V6L10 0ZM5.498 14.19C5.189 14.48 4.733 14.61 4.202 14.61C4.09904 14.6111 3.99613 14.6051 3.894 14.592V16.018H3V12.082C3.40345 12.0218 3.81112 11.9944 4.219 12C4.776 12 5.172 12.106 5.439 12.319C5.693 12.521 5.865 12.852 5.865 13.242C5.864 13.634 5.734 13.965 5.498 14.19ZM9.305 15.545C8.885 15.894 8.246 16.06 7.465 16.06C6.997 16.06 6.666 16.03 6.441 16V12.083C6.8446 12.0241 7.2521 11.9963 7.66 12C8.417 12 8.909 12.136 9.293 12.426C9.708 12.734 9.968 13.225 9.968 13.93C9.968 14.693 9.689 15.22 9.305 15.545ZM13 12.77H11.468V13.681H12.9V14.415H11.468V16.019H10.562V12.03H13V12.77ZM10 7H9V2L14 7H10Z" fill="white"/>
</svg>
