<svg width="24" height="24" viewBox="0 0 24 24" fill="none" xmlns="http://www.w3.org/2000/svg">
<g clip-path="url(#clip0_56_530)">
<path d="M18.0233 1.6099C16.1849 0.53689 14.177 0.000488281 12 0.000488281C9.82273 0.000488281 7.81487 0.53689 5.97642 1.6099C4.13797 2.68295 2.68222 4.13871 1.60941 5.97691C0.536402 7.81557 0 9.82343 0 12.0005C0 14.4276 0.661178 16.6307 1.98428 18.6096C3.30713 20.5891 5.04136 22.0525 7.18743 23.0002C7.14557 21.8856 7.21333 20.9639 7.39057 20.2348L8.93736 13.7035C8.67691 13.1932 8.54679 12.5579 8.54679 11.7973C8.54679 10.9119 8.77073 10.1721 9.21862 9.57868C9.66625 8.98472 10.2133 8.68772 10.8592 8.68772C11.3799 8.68772 11.7811 8.85941 12.0624 9.20357C12.3437 9.54719 12.4844 9.97962 12.4844 10.5003C12.4844 10.8234 12.4243 11.2168 12.3048 11.6801C12.1849 12.1437 12.0286 12.6801 11.8361 13.2895C11.6434 13.8987 11.5055 14.3857 11.422 14.7504C11.2759 15.3857 11.3959 15.9299 11.7814 16.3831C12.1665 16.8363 12.6771 17.0627 13.3127 17.0627C14.4273 17.0627 15.3414 16.4432 16.055 15.2035C16.7685 13.9639 17.1252 12.4587 17.1252 10.6877C17.1252 9.32325 16.6853 8.21364 15.805 7.35952C14.9247 6.5056 13.6979 6.07827 12.1253 6.07827C10.3647 6.07827 8.94014 6.6436 7.85188 7.77342C6.76337 8.90379 6.21909 10.2555 6.21909 11.8279C6.21909 12.7655 6.48489 13.5522 7.01595 14.1876C7.19298 14.396 7.25029 14.6197 7.18788 14.8591C7.16683 14.9218 7.12527 15.078 7.06286 15.3278C7.00049 15.5776 6.95864 15.7394 6.93783 15.8122C6.85437 16.1457 6.65658 16.2499 6.34387 16.1247C5.54171 15.7914 4.93225 15.2134 4.51582 14.3904C4.09914 13.5676 3.8909 12.6146 3.8909 11.5312C3.8909 10.8332 4.00275 10.1353 4.22669 9.43733C4.45063 8.73939 4.79935 8.06504 5.27364 7.41372C5.74738 6.7632 6.31523 6.18726 6.97691 5.68737C7.63834 5.18722 8.44306 4.78654 9.39105 4.48394C10.3388 4.18213 11.3599 4.031 12.4536 4.031C13.9328 4.031 15.261 4.35917 16.438 5.01525C17.6149 5.67162 18.5135 6.52073 19.1333 7.56229C19.7529 8.60389 20.0631 9.71825 20.0631 10.9062C20.0631 12.4687 19.792 13.875 19.2506 15.1251C18.7089 16.3752 17.9432 17.3568 16.9536 18.0703C15.9637 18.7837 14.8387 19.1405 13.5785 19.1405C12.9429 19.1405 12.3492 18.9922 11.7971 18.6952C11.2447 18.3982 10.8646 18.0467 10.6563 17.6404C10.1877 19.4839 9.9064 20.5834 9.81258 20.9371C9.6145 21.6769 9.20822 22.5308 8.5937 23.4996C9.70832 23.8329 10.8437 23.9995 12 23.9995C14.177 23.9995 16.1849 23.4631 18.0233 22.3904C19.8617 21.3173 21.3175 19.8616 22.3906 18.0229C23.4633 16.1844 24 14.1768 24 11.9995C24 9.82218 23.4633 7.81462 22.3906 5.97591C21.3177 4.13871 19.8617 2.68295 18.0233 1.6099Z" fill="#333333"/>
</g>
<defs>
<clipPath id="clip0_56_530">
<rect width="24" height="24" fill="white"/>
</clipPath>
</defs>
</svg>
