<svg width="24" height="24" viewBox="0 0 24 24" fill="none" xmlns="http://www.w3.org/2000/svg">
<path fill-rule="evenodd" clip-rule="evenodd" d="M19.1493 3.26981C17.0444 1.16235 14.2449 0.00123596 11.2625 0C5.11705 0 0.115524 5.00139 0.113052 11.1485C0.112228 13.1136 0.625565 15.0318 1.60129 16.7226L0.0195312 22.5L5.93004 20.9496C7.55862 21.8379 9.39211 22.3061 11.258 22.3066H11.2627C17.4075 22.3066 22.4095 17.3048 22.4119 11.1574C22.4131 8.17822 21.2545 5.37712 19.1493 3.26981ZM11.2625 20.4237H11.2587C9.5959 20.423 7.96512 19.9762 6.54211 19.132L6.20387 18.9311L2.69649 19.8512L3.63266 16.4316L3.41225 16.081C2.48459 14.6055 1.99474 12.9001 1.99556 11.1492C1.99748 6.03987 6.15471 1.88306 11.2662 1.88306C13.7415 1.88388 16.0682 2.84903 17.8178 4.60066C19.5674 6.35229 20.5303 8.68057 20.5295 11.1568C20.5273 16.2665 16.3703 20.4237 11.2625 20.4237ZM16.3456 13.4832C16.0671 13.3437 14.6974 12.67 14.442 12.5769C14.1868 12.4839 14.0009 12.4376 13.8153 12.7164C13.6295 12.9952 13.0957 13.6228 12.9331 13.8086C12.7705 13.9945 12.6082 14.0179 12.3296 13.8783C12.0509 13.739 11.1534 13.4447 10.0892 12.4956C9.26109 11.7569 8.70203 10.8446 8.53943 10.5658C8.37711 10.2868 8.53806 10.1505 8.66165 9.99728C8.96323 9.62279 9.26521 9.23016 9.35805 9.04436C9.45102 8.85841 9.40446 8.69568 9.3347 8.55629C9.26521 8.4169 8.70807 7.04567 8.47598 6.4877C8.24966 5.9447 8.02019 6.01804 7.84908 6.00952C7.68675 6.00142 7.50095 5.99977 7.31514 5.99977C7.12947 5.99977 6.82762 6.0694 6.57219 6.34845C6.31689 6.62737 5.59729 7.30124 5.59729 8.67247C5.59729 10.0437 6.59554 11.3684 6.73479 11.5543C6.87404 11.7403 8.69928 14.5541 11.4938 15.7607C12.1585 16.048 12.6773 16.2193 13.082 16.3477C13.7494 16.5597 14.3566 16.5298 14.8367 16.4581C15.372 16.378 16.4847 15.7841 16.7171 15.1334C16.9492 14.4826 16.9492 13.9249 16.8794 13.8086C16.8099 13.6924 16.6241 13.6228 16.3456 13.4832Z" fill="#333333"/>
</svg>
