<svg width="24" height="24" viewBox="0 0 24 24" fill="none" xmlns="http://www.w3.org/2000/svg">
<g clip-path="url(#clip0_56_526)">
<path d="M15.6948 10.895L10.3926 7.9939C10.0877 7.82709 9.72736 7.83332 9.42853 8.01038C9.12952 8.18763 8.95117 8.50074 8.95117 8.84827V14.6007C8.95117 14.9466 9.12842 15.2592 9.42542 15.4366C9.58051 15.5292 9.75244 15.5757 9.92474 15.5757C10.0826 15.5757 10.2408 15.5367 10.3864 15.4584L15.6887 12.6072C16.0035 12.4379 16.2 12.1107 16.2014 11.7531C16.2027 11.3955 16.0086 11.0668 15.6948 10.895ZM10.3576 13.8771V9.57776L14.3204 11.7461L10.3576 13.8771Z" fill="#333333"/>
<path d="M23.8234 7.17021L23.8223 7.15922C23.802 6.96605 23.5996 5.24779 22.7643 4.37383C21.7988 3.34588 20.7042 3.22101 20.1778 3.16113C20.1342 3.15619 20.0943 3.15161 20.0586 3.14685L20.0166 3.14246C16.8438 2.91174 12.0521 2.88025 12.0042 2.88007L12 2.87988L11.9957 2.88007C11.9478 2.88025 7.1561 2.91174 3.9547 3.14246L3.9124 3.14685C3.87834 3.15143 3.84081 3.15564 3.79997 3.1604C3.27959 3.22046 2.19671 3.34552 1.22845 4.41064C0.43286 5.27526 0.20288 6.95671 0.17926 7.14567L0.176513 7.17021C0.169372 7.25059 0 9.16422 0 11.0854V12.8812C0 14.8024 0.169372 16.716 0.176513 16.7966L0.177795 16.8087C0.198119 16.9987 0.400267 18.6855 1.23175 19.5598C2.13958 20.5533 3.28746 20.6848 3.90489 20.7555C4.00249 20.7667 4.08653 20.7762 4.14384 20.7862L4.19932 20.7939C6.03129 20.9683 11.7751 21.0541 12.0186 21.0576L12.026 21.0578L12.0333 21.0576C12.0813 21.0574 16.8727 21.0259 20.0456 20.7952L20.0875 20.7908C20.1276 20.7855 20.1726 20.7808 20.2221 20.7756C20.7395 20.7207 21.8166 20.6066 22.7715 19.556C23.567 18.6912 23.7972 17.0097 23.8206 16.8209L23.8234 16.7964C23.8305 16.7158 24.0001 14.8024 24.0001 12.8812V11.0854C23.9999 9.16422 23.8305 7.25078 23.8234 7.17021ZM22.5935 12.8812C22.5935 14.6594 22.4382 16.4906 22.4236 16.6587C22.3639 17.1218 22.1213 18.1856 21.7336 18.6069C21.136 19.2645 20.522 19.3296 20.0738 19.3771C20.0196 19.3827 19.9694 19.3882 19.924 19.3939C16.8552 19.6158 12.2444 19.6499 12.032 19.6512C11.7938 19.6477 6.13401 19.5611 4.35789 19.3961C4.26689 19.3813 4.16856 19.3699 4.06493 19.3582C3.53923 19.298 2.81963 19.2156 2.26629 18.6069L2.25329 18.593C1.87243 18.1962 1.63677 17.2014 1.5769 16.6642C1.56573 16.5371 1.40643 14.6843 1.40643 12.8812V11.0854C1.40643 9.30924 1.56133 7.48002 1.57635 7.30845C1.64758 6.76299 1.89477 5.7636 2.26629 5.35967C2.88225 4.68218 3.53172 4.60711 3.96129 4.55749C4.0023 4.55273 4.04057 4.54833 4.07591 4.54376C7.18942 4.32073 11.8333 4.28759 12 4.28631C12.1666 4.28741 16.8088 4.32073 19.8947 4.54376C19.9326 4.54852 19.974 4.55328 20.0185 4.5584C20.4603 4.60876 21.1281 4.68493 21.7409 5.33861L21.7466 5.34466C22.1275 5.74144 22.3631 6.75365 22.423 7.30168C22.4336 7.42161 22.5935 9.27848 22.5935 11.0854V12.8812Z" fill="#333333"/>
</g>
<defs>
<clipPath id="clip0_56_526">
<rect width="24" height="24" fill="white"/>
</clipPath>
</defs>
</svg>
